<mxfile host="app.diagrams.net" agent="Mozilla/5.0 (Windows NT 10.0; Win64; x64; rv:129.0) Gecko/20100101 Firefox/129.0" version="24.7.8">
  <diagram id="x3ncZKDRDkHWUwOJUucx" name="Page-1">
    <mxGraphModel dx="1167" dy="1720" grid="1" gridSize="10" guides="1" tooltips="1" connect="1" arrows="1" fold="1" page="1" pageScale="1" pageWidth="850" pageHeight="1100" math="0" shadow="0">
      <root>
        <mxCell id="0" />
        <mxCell id="1" parent="0" />
        <mxCell id="5jR0ldrCE_uANBi2Xd0J-6" style="edgeStyle=orthogonalEdgeStyle;rounded=0;orthogonalLoop=1;jettySize=auto;html=1;exitX=0.5;exitY=0.5;exitDx=0;exitDy=0;exitPerimeter=0;entryX=0;entryY=0.5;entryDx=0;entryDy=0;" edge="1" parent="1" source="FQCfXmEY83gC5m7Gy5QT-9" target="5jR0ldrCE_uANBi2Xd0J-5">
          <mxGeometry relative="1" as="geometry" />
        </mxCell>
        <mxCell id="FQCfXmEY83gC5m7Gy5QT-9" value="Actor" style="shape=umlActor;verticalLabelPosition=bottom;verticalAlign=top;html=1;" parent="1" vertex="1">
          <mxGeometry x="80" y="240" width="30" height="60" as="geometry" />
        </mxCell>
        <mxCell id="5jR0ldrCE_uANBi2Xd0J-4" value="" style="swimlane;startSize=0;" vertex="1" parent="1">
          <mxGeometry x="165" y="-90" width="635" height="710" as="geometry" />
        </mxCell>
        <mxCell id="5jR0ldrCE_uANBi2Xd0J-10" style="edgeStyle=orthogonalEdgeStyle;rounded=0;orthogonalLoop=1;jettySize=auto;html=1;" edge="1" parent="5jR0ldrCE_uANBi2Xd0J-4" source="5jR0ldrCE_uANBi2Xd0J-5" target="5jR0ldrCE_uANBi2Xd0J-9">
          <mxGeometry relative="1" as="geometry" />
        </mxCell>
        <mxCell id="5jR0ldrCE_uANBi2Xd0J-11" value="&amp;lt;&amp;lt;include&amp;gt;&amp;gt;" style="edgeLabel;html=1;align=center;verticalAlign=middle;resizable=0;points=[];" vertex="1" connectable="0" parent="5jR0ldrCE_uANBi2Xd0J-10">
          <mxGeometry x="-0.2778" y="-1" relative="1" as="geometry">
            <mxPoint as="offset" />
          </mxGeometry>
        </mxCell>
        <mxCell id="5jR0ldrCE_uANBi2Xd0J-5" value="Halaman utama" style="ellipse;whiteSpace=wrap;html=1;" vertex="1" parent="5jR0ldrCE_uANBi2Xd0J-4">
          <mxGeometry x="55" y="330" width="110" height="60" as="geometry" />
        </mxCell>
        <mxCell id="5jR0ldrCE_uANBi2Xd0J-9" value="Footer" style="ellipse;whiteSpace=wrap;html=1;" vertex="1" parent="5jR0ldrCE_uANBi2Xd0J-4">
          <mxGeometry x="55" y="440" width="110" height="60" as="geometry" />
        </mxCell>
        <mxCell id="5jR0ldrCE_uANBi2Xd0J-13" value="Halaman hero" style="ellipse;whiteSpace=wrap;html=1;" vertex="1" parent="5jR0ldrCE_uANBi2Xd0J-4">
          <mxGeometry x="255" y="240" width="110" height="60" as="geometry" />
        </mxCell>
        <mxCell id="5jR0ldrCE_uANBi2Xd0J-14" value="Halaman about" style="ellipse;whiteSpace=wrap;html=1;" vertex="1" parent="5jR0ldrCE_uANBi2Xd0J-4">
          <mxGeometry x="260" y="330" width="110" height="60" as="geometry" />
        </mxCell>
        <mxCell id="5jR0ldrCE_uANBi2Xd0J-15" value="Halaman partners" style="ellipse;whiteSpace=wrap;html=1;" vertex="1" parent="5jR0ldrCE_uANBi2Xd0J-4">
          <mxGeometry x="260" y="420" width="110" height="60" as="geometry" />
        </mxCell>
        <mxCell id="5jR0ldrCE_uANBi2Xd0J-17" value="" style="endArrow=open;endFill=1;endSize=12;html=1;rounded=0;exitX=1;exitY=0.5;exitDx=0;exitDy=0;entryX=0;entryY=0.5;entryDx=0;entryDy=0;" edge="1" parent="5jR0ldrCE_uANBi2Xd0J-4" source="5jR0ldrCE_uANBi2Xd0J-5" target="5jR0ldrCE_uANBi2Xd0J-13">
          <mxGeometry width="160" relative="1" as="geometry">
            <mxPoint x="170" y="170" as="sourcePoint" />
            <mxPoint x="330" y="170" as="targetPoint" />
          </mxGeometry>
        </mxCell>
        <mxCell id="5jR0ldrCE_uANBi2Xd0J-20" value="Text" style="edgeLabel;html=1;align=center;verticalAlign=middle;resizable=0;points=[];" vertex="1" connectable="0" parent="5jR0ldrCE_uANBi2Xd0J-17">
          <mxGeometry x="-0.0062" y="-4" relative="1" as="geometry">
            <mxPoint as="offset" />
          </mxGeometry>
        </mxCell>
        <mxCell id="5jR0ldrCE_uANBi2Xd0J-22" value="&amp;lt;&amp;lt;include&amp;gt;&amp;gt;" style="edgeLabel;html=1;align=center;verticalAlign=middle;resizable=0;points=[];" vertex="1" connectable="0" parent="5jR0ldrCE_uANBi2Xd0J-17">
          <mxGeometry x="0.0167" y="-8" relative="1" as="geometry">
            <mxPoint as="offset" />
          </mxGeometry>
        </mxCell>
        <mxCell id="5jR0ldrCE_uANBi2Xd0J-18" value="" style="endArrow=open;endFill=1;endSize=12;html=1;rounded=0;exitX=1;exitY=0.5;exitDx=0;exitDy=0;entryX=0;entryY=0.5;entryDx=0;entryDy=0;" edge="1" parent="5jR0ldrCE_uANBi2Xd0J-4" source="5jR0ldrCE_uANBi2Xd0J-5" target="5jR0ldrCE_uANBi2Xd0J-14">
          <mxGeometry width="160" relative="1" as="geometry">
            <mxPoint x="170" y="170" as="sourcePoint" />
            <mxPoint x="330" y="170" as="targetPoint" />
          </mxGeometry>
        </mxCell>
        <mxCell id="5jR0ldrCE_uANBi2Xd0J-23" value="&amp;lt;&amp;lt;include&amp;gt;&amp;gt;" style="edgeLabel;html=1;align=center;verticalAlign=middle;resizable=0;points=[];" vertex="1" connectable="0" parent="5jR0ldrCE_uANBi2Xd0J-18">
          <mxGeometry x="-0.1622" y="-2" relative="1" as="geometry">
            <mxPoint as="offset" />
          </mxGeometry>
        </mxCell>
        <mxCell id="5jR0ldrCE_uANBi2Xd0J-19" value="" style="endArrow=open;endFill=1;endSize=12;html=1;rounded=0;exitX=1;exitY=0.5;exitDx=0;exitDy=0;entryX=0;entryY=0.5;entryDx=0;entryDy=0;" edge="1" parent="5jR0ldrCE_uANBi2Xd0J-4" source="5jR0ldrCE_uANBi2Xd0J-5" target="5jR0ldrCE_uANBi2Xd0J-15">
          <mxGeometry width="160" relative="1" as="geometry">
            <mxPoint x="170" y="170" as="sourcePoint" />
            <mxPoint x="330" y="170" as="targetPoint" />
          </mxGeometry>
        </mxCell>
        <mxCell id="5jR0ldrCE_uANBi2Xd0J-24" value="&amp;lt;&amp;lt;include&amp;gt;&amp;gt;" style="edgeLabel;html=1;align=center;verticalAlign=middle;resizable=0;points=[];" vertex="1" connectable="0" parent="5jR0ldrCE_uANBi2Xd0J-19">
          <mxGeometry x="0.0232" relative="1" as="geometry">
            <mxPoint x="9" as="offset" />
          </mxGeometry>
        </mxCell>
        <mxCell id="5jR0ldrCE_uANBi2Xd0J-26" value="Header" style="ellipse;whiteSpace=wrap;html=1;" vertex="1" parent="5jR0ldrCE_uANBi2Xd0J-4">
          <mxGeometry x="55" y="220" width="110" height="60" as="geometry" />
        </mxCell>
        <mxCell id="5jR0ldrCE_uANBi2Xd0J-28" value="" style="endArrow=open;endFill=1;endSize=12;html=1;rounded=0;exitX=0.5;exitY=0;exitDx=0;exitDy=0;entryX=0.5;entryY=1;entryDx=0;entryDy=0;" edge="1" parent="5jR0ldrCE_uANBi2Xd0J-4" source="5jR0ldrCE_uANBi2Xd0J-5" target="5jR0ldrCE_uANBi2Xd0J-26">
          <mxGeometry width="160" relative="1" as="geometry">
            <mxPoint x="170" y="170" as="sourcePoint" />
            <mxPoint x="330" y="170" as="targetPoint" />
          </mxGeometry>
        </mxCell>
        <mxCell id="5jR0ldrCE_uANBi2Xd0J-30" style="edgeStyle=orthogonalEdgeStyle;rounded=0;orthogonalLoop=1;jettySize=auto;html=1;entryX=1;entryY=0.5;entryDx=0;entryDy=0;" edge="1" parent="5jR0ldrCE_uANBi2Xd0J-4" source="5jR0ldrCE_uANBi2Xd0J-29" target="5jR0ldrCE_uANBi2Xd0J-13">
          <mxGeometry relative="1" as="geometry" />
        </mxCell>
        <mxCell id="5jR0ldrCE_uANBi2Xd0J-31" value="&amp;lt;&amp;lt;extend&amp;gt;&amp;gt;" style="edgeLabel;html=1;align=center;verticalAlign=middle;resizable=0;points=[];" vertex="1" connectable="0" parent="5jR0ldrCE_uANBi2Xd0J-30">
          <mxGeometry x="-0.1028" y="2" relative="1" as="geometry">
            <mxPoint as="offset" />
          </mxGeometry>
        </mxCell>
        <mxCell id="5jR0ldrCE_uANBi2Xd0J-29" value="&lt;div&gt;Tombol View &lt;br&gt;&lt;/div&gt;&lt;div&gt;partners&lt;br&gt;&lt;/div&gt;" style="ellipse;whiteSpace=wrap;html=1;" vertex="1" parent="5jR0ldrCE_uANBi2Xd0J-4">
          <mxGeometry x="465" y="240" width="110" height="60" as="geometry" />
        </mxCell>
        <mxCell id="5jR0ldrCE_uANBi2Xd0J-32" value="Back to top" style="ellipse;whiteSpace=wrap;html=1;" vertex="1" parent="5jR0ldrCE_uANBi2Xd0J-4">
          <mxGeometry x="465" y="330" width="110" height="60" as="geometry" />
        </mxCell>
        <mxCell id="5jR0ldrCE_uANBi2Xd0J-33" style="edgeStyle=orthogonalEdgeStyle;rounded=0;orthogonalLoop=1;jettySize=auto;html=1;entryX=1;entryY=0.5;entryDx=0;entryDy=0;" edge="1" parent="5jR0ldrCE_uANBi2Xd0J-4" source="5jR0ldrCE_uANBi2Xd0J-32" target="5jR0ldrCE_uANBi2Xd0J-14">
          <mxGeometry relative="1" as="geometry">
            <mxPoint x="366" y="370" as="targetPoint" />
          </mxGeometry>
        </mxCell>
        <mxCell id="5jR0ldrCE_uANBi2Xd0J-34" value="&amp;lt;&amp;lt;extend&amp;gt;&amp;gt;" style="edgeLabel;html=1;align=center;verticalAlign=middle;resizable=0;points=[];" vertex="1" connectable="0" parent="5jR0ldrCE_uANBi2Xd0J-33">
          <mxGeometry x="0.0363" relative="1" as="geometry">
            <mxPoint as="offset" />
          </mxGeometry>
        </mxCell>
        <mxCell id="5jR0ldrCE_uANBi2Xd0J-35" value="USE CASE / Muhmad haji ibrahim XI PPLG 2" style="text;html=1;align=center;verticalAlign=middle;resizable=0;points=[];autosize=1;strokeColor=none;fillColor=none;" vertex="1" parent="1">
          <mxGeometry x="350" y="-22" width="260" height="30" as="geometry" />
        </mxCell>
      </root>
    </mxGraphModel>
  </diagram>
</mxfile>
